<svg xmlns="http://www.w3.org/2000/svg" viewBox="0 0 1200 900" font-family="Segoe UI, -apple-system, sans-serif" role="img" aria-labelledby="direct-lake-query-path-title direct-lake-query-path-desc" data-diagram-id="direct-lake-query-path">
  <title id="direct-lake-query-path-title">Direct Lake Query Path vs DirectQuery Fallback</title>
  <desc id="direct-lake-query-path-desc">A flow diagram starting from a report visual issuing a query. The query reaches the semantic model, which checks whether any requested column is already resident in memory from a prior query; if not, it loads that column lazily and directly from the OneLake Delta table, anchored to the most recent framing operation. For Direct Lake on SQL models specifically, three documented conditions — querying a SQL-endpoint view, row-level security on the SQL endpoint, or exceeding capacity guardrails — branch the query into DirectQuery fallback against the SQL analytics endpoint instead, trading the framing snapshot for live data at typically slower performance. Direct Lake on OneLake never takes this fallback branch at all. A warning node flags the specific, sourced trap of basing a Direct Lake on SQL table on a SQL view, which forces every query against it into fallback permanently.</desc>
  <!-- Fabric Atlas — ORIGINAL diagram (not a Microsoft asset).
       Direct Lake query path and capacity boundary details.
       Grounded in Microsoft Learn specifications. -->
  <defs>
    <linearGradient id="sliderGrad" x1="0" y1="0" x2="1" y2="0">
      <stop offset="0%" stop-color="#EAB308"/>
      <stop offset="50%" stop-color="#22C55E"/>
      <stop offset="100%" stop-color="#1E3A8A"/>
    </linearGradient>
  </defs>

  <rect width="1200" height="900" fill="#FFFFFF"/>

  <!-- TITLE BLOCK -->
  <g data-node-id="fallback-trigger-check" role="group" tabindex="0" aria-label="DirectQuery fallback trigger check (SQL flavor only)">
    <title data-node-tooltip="true">DirectQuery fallback trigger check (SQL flavor only) — Direct Lake on SQL checks three documented conditions that force a fallback to DirectQuery.</title>
    <rect x="28.0" y="10.2" width="480.0" height="51.6" rx="6" fill="transparent" pointer-events="all"/>
    <text x="40" y="45" font-size="24" font-weight="700" fill="#3B2A5A">Lakehouse-to-Power BI analytics on OneLake with Direct Lake</text>
  </g>
  <g data-node-id="visual-query" role="group" tabindex="0" aria-label="Report visual issues a query">
    <title data-node-tooltip="true">Report visual issues a query — A Power BI visual requests data, consumed exactly like any other semantic model.</title>
    <rect x="28.0" y="51.2" width="480.0" height="30.0" rx="6" fill="transparent" pointer-events="all"/>
    <text x="40" y="70" font-size="13" fill="#616161">Serve interactive Power BI reports over a Fabric lakehouse without copying or refreshing data into an import model, while staying inside one capacity's limits.</text>
  </g>

  <!-- TOP BADGES / PILLS -->
  <!-- Pill 1: No duplicate data -->
  <rect x="310" y="90" width="180" height="26" rx="13" fill="#E6F4F8" stroke="#B2E0E6" stroke-width="1"/>
  <path d="M 327,97 C 327,95.5 333,95.5 333,97 C 333,98.5 327,98.5 327,97 M 327,97 L 327,101 C 327,102.5 333,102.5 333,101 L 333,97 M 327,101 L 327,105 C 327,106.5 333,106.5 333,105 L 333,101" fill="none" stroke="#0F5B5C" stroke-width="1.2" stroke-linecap="round" stroke-linejoin="round"/>
  <text x="410" y="107" text-anchor="middle" font-size="11" font-weight="600" fill="#0F5B5C">No duplicate data</text>

  <!-- Pill 2: Near-real-time freshness -->
  <rect x="510" y="90" width="180" height="26" rx="13" fill="#EBFCEE" stroke="#C4F2D2" stroke-width="1"/>
  <circle cx="527" cy="103" r="6" fill="none" stroke="#105B27" stroke-width="1.2"/>
  <path d="M 527,99 L 527,103 L 531,105" fill="none" stroke="#105B27" stroke-width="1.2" stroke-linecap="round"/>
  <text x="610" y="107" text-anchor="middle" font-size="11" font-weight="600" fill="#105B27">Near-real-time freshness</text>

  <!-- Pill 3: Import-like performance -->
  <rect x="710" y="90" width="180" height="26" rx="13" fill="#FFF7ED" stroke="#FFD8A8" stroke-width="1"/>
  <path d="M 721,106 A 6,6 0 0,1 733,106" fill="none" stroke="#8C4E03" stroke-width="1.2" stroke-linecap="round"/>
  <line x1="727" y1="106" x2="730" y2="101" stroke="#8C4E03" stroke-width="1.2" stroke-linecap="round"/>
  <text x="810" y="107" text-anchor="middle" font-size="11" font-weight="600" fill="#8C4E03">Import-like performance</text>


  <!-- MIDDLE FLOW ARCHITECTURE -->

  <!-- STEP 1: Storage -->
  <rect x="50" y="145" width="310" height="150" rx="8" fill="#F4FBFD" stroke="#0891B2" stroke-width="1.5"/>
  <circle cx="50" cy="145" r="12" fill="#0D9488"/>
  <text x="50" y="149" text-anchor="middle" font-size="12" font-weight="700" fill="#FFFFFF">1</text>
  
  <g transform="translate(10, 5)">
    <path d="M 100,160 L 70,187 L 78,187 L 78,215 L 122,215 L 122,187 L 130,187 Z" fill="none" stroke="#0D9488" stroke-width="3" stroke-linejoin="round"/>
    <path d="M 78,223 C 88.5,218 91.5,228 100,223 C 108.5,218 111.5,228 122,223" fill="none" stroke="#0D9488" stroke-width="2.5" stroke-linecap="round"/>
    <path d="M 78,231 C 88.5,226 91.5,236 100,231 C 108.5,226 111.5,236 122,231" fill="none" stroke="#0EA5E9" stroke-width="2.5" stroke-linecap="round"/>
    <path d="M 78,239 C 88.5,234 91.5,244 100,239 C 108.5,234 111.5,244 122,239" fill="none" stroke="#0284C7" stroke-width="2.5" stroke-linecap="round"/>
  </g>

  <text x="160" y="180" font-size="14" font-weight="700" fill="#0D9488">OneLake + Lakehouse</text>
  <text x="160" y="200" font-size="11" fill="#4B5563">Delta / Parquet tables</text>
  <line x1="160" y1="212" x2="330" y2="212" stroke="#E5E7EB" stroke-width="1"/>
  <circle cx="170" cy="235" r="7" fill="#DCFCE7" stroke="#16A34A" stroke-width="1"/>
  <path d="M 167,235 L 169,237 L 173,233" fill="none" stroke="#16A34A" stroke-width="1.2" stroke-linecap="round"/>
  <text x="185" y="239" font-size="11.5" font-weight="600" fill="#15803D">One physical copy</text>


  <!-- STEP 2: Serving (inside Capacity SKU memory boundary) -->
  <rect x="415" y="120" width="370" height="240" rx="10" fill="none" stroke="#0D9488" stroke-width="1.5" stroke-dasharray="5 4"/>
  <rect x="495" y="110" width="210" height="20" rx="4" fill="#E6F4F8"/>
  <text x="600" y="124" text-anchor="middle" font-size="11" font-weight="600" fill="#0D9488">Capacity SKU memory boundary</text>

  <rect x="430" y="145" width="340" height="150" rx="8" fill="#F0FDF4" stroke="#10B981" stroke-width="1.5"/>
  <circle cx="430" cy="145" r="12" fill="#10B981"/>
  <text x="430" y="149" text-anchor="middle" font-size="12" font-weight="700" fill="#FFFFFF">2</text>

  <rect x="448" y="178" width="54" height="42" rx="4" fill="none" stroke="#10B981" stroke-width="2.5"/>
  <rect x="456" y="186" width="10" height="26" fill="#34D399" rx="1"/>
  <rect x="470" y="186" width="10" height="26" fill="#059669" rx="1"/>
  <rect x="484" y="186" width="10" height="26" fill="#10B981" rx="1"/>

  <text x="520" y="180" font-size="14" font-weight="700" fill="#047857">Direct Lake semantic model</text>
  <text x="520" y="200" font-size="11" fill="#4B5563">Loads Parquet columns</text>
  <text x="520" y="213" font-size="11" fill="#4B5563">directly into memory</text>
  <line x1="520" y1="225" x2="750" y2="225" stroke="#E5E7EB" stroke-width="1"/>
  <circle cx="530" cy="245" r="7" fill="#DCFCE7" stroke="#16A34A" stroke-width="1"/>
  <path d="M 527,245 L 529,247 L 533,243" fill="none" stroke="#16A34A" stroke-width="1.2" stroke-linecap="round"/>
  <text x="545" y="249" font-size="11.5" font-weight="600" fill="#15803D">Import-like performance</text>

  <!-- Speedometer/Gauge below Step 2 Box (inside boundary) -->
  <path d="M 445,335 A 14,14 0 0,1 473,335" fill="none" stroke="#0D9488" stroke-width="2.5" stroke-linecap="round"/>
  <line x1="459" y1="335" x2="467" y2="322" stroke="#0D9488" stroke-width="2.5" stroke-linecap="round"/>
  <text x="485" y="322" font-size="11" font-weight="600" fill="#0D9488">SKU sets the maximum resident</text>
  <g data-node-id="framing" role="group" tabindex="0" aria-label="Framing (point-in-time anchor)">
    <title data-node-tooltip="true">Framing (point-in-time anchor) — A metadata-only refresh that rebinds the model to the current Delta commit version, usually in seconds.</title>
    <rect x="473.0" y="321.1" width="285.6" height="30.0" rx="6" fill="transparent" pointer-events="all"/>
    <text x="485" y="337" font-size="11" font-weight="600" fill="#0D9488">column memory per Direct Lake model [S4].</text>
  </g>


  <!-- STEP 3: Power BI -->
  <rect x="820" y="145" width="330" height="150" rx="8" fill="#EFF6FF" stroke="#3B82F6" stroke-width="1.5"/>
  <circle cx="820" cy="145" r="12" fill="#3B82F6"/>
  <text x="820" y="149" text-anchor="middle" font-size="12" font-weight="700" fill="#FFFFFF">3</text>

  <rect x="842" y="202" width="12" height="18" rx="2" fill="#F59E0B"/>
  <rect x="858" y="184" width="12" height="36" rx="2" fill="#D97706"/>
  <rect x="874" y="166" width="12" height="54" rx="2" fill="#B45309"/>

  <text x="910" y="180" font-size="14" font-weight="700" fill="#1D4ED8">Interactive Power BI reports</text>
  <text x="910" y="200" font-size="11" fill="#4B5563">Fast analytics for</text>
  <text x="910" y="213" font-size="11" fill="#4B5563">business users</text>
  <line x1="910" y1="225" x2="1135" y2="225" stroke="#E5E7EB" stroke-width="1"/>
  <circle cx="920" cy="245" r="7" fill="#EFF6FF" stroke="#3B82F6" stroke-width="1"/>
  <path d="M 917,245 L 919,247 L 923,243" fill="none" stroke="#3B82F6" stroke-width="1.2" stroke-linecap="round"/>
  <text x="935" y="249" font-size="11.5" font-weight="600" fill="#1D4ED8">Fresh data from the lakehouse</text>


  <!-- FLOW ARROWS -->
  <!-- Arrow 1 (Step 1 -> Step 2) -->
  <path d="M 370,214 L 405,214 L 405,208 L 422,220 L 405,232 L 405,226 L 370,226 Z" fill="#0D9488"/>
  <!-- Arrow 2 (Step 2 -> Step 3) -->
  <path d="M 778,214 L 805,214 L 805,208 L 822,220 L 805,232 L 805,226 L 778,226 Z" fill="#0D9488"/>


  <!-- DETAILS SECTIONS (ROW 2) -->

  <!-- Column 1 Details -->
  <rect x="40" y="395" width="350" height="240" rx="8" fill="#FDFDFD" stroke="#E4E4E7" stroke-width="1.5"/>
  <circle cx="65" cy="420" r="10" fill="#0D9488"/>
  <text x="65" y="424" text-anchor="middle" font-size="11" font-weight="700" fill="#FFFFFF">1</text>
  <text x="83" y="424" font-size="13" font-weight="700" fill="#0D9488">1. Storage: OneLake + Lakehouse</text>

  <g transform="translate(15, 45)">
    <ellipse cx="50" cy="420" rx="18" ry="7" fill="#38BDF8" stroke="#0284C7" stroke-width="1"/>
    <path d="M 32,420 L 32,432 A 18,7 0 0,0 68,432 L 68,420" fill="#38BDF8" stroke="#0284C7" stroke-width="1"/>
    <ellipse cx="50" cy="438" rx="18" ry="7" fill="#0EA5E9" stroke="#025E8C" stroke-width="1"/>
    <path d="M 32,438 L 32,450 A 18,7 0 0,0 68,450 L 68,438" fill="#0EA5E9" stroke="#025E8C" stroke-width="1"/>
    <ellipse cx="50" cy="456" rx="18" ry="7" fill="#0284C7" stroke="#014A70" stroke-width="1"/>
    <path d="M 32,456 L 32,468 A 18,7 0 0,0 68,468 L 68,456" fill="#0284C7" stroke="#014A70" stroke-width="1"/>
  </g>

  <circle cx="112" cy="457" r="2.5" fill="#4B5563"/>
  <text x="122" y="460" font-size="10.5" fill="#374151">OneLake is the unified logical data lake</text>
  <text x="122" y="473" font-size="10.5" fill="#374151">for the Fabric tenant <tspan fill="#0284C7" font-weight="600">[S1]</tspan>.</text>

  <circle cx="112" cy="497" r="2.5" fill="#4B5563"/>
  <text x="122" y="500" font-size="10.5" fill="#374151">Lakehouse tables are stored in Delta /</text>
  <text x="122" y="513" font-size="10.5" fill="#374151">Parquet format in OneLake <tspan fill="#0284C7" font-weight="600">[S2]</tspan>.</text>

  <circle cx="112" cy="537" r="2.5" fill="#4B5563"/>
  <text x="122" y="540" font-size="10.5" font-weight="600" fill="#374151">Result:</text>
  <text x="162" y="540" font-size="10.5" fill="#374151">reporting can use the same</text>
  <text x="122" y="553" font-size="10.5" fill="#374151">physical data without creating a</text>
  <text x="122" y="566" font-size="10.5" fill="#374151">second copy.</text>

  <rect x="60" y="585" width="310" height="36" rx="18" fill="#ECFDF5" stroke="#10B981" stroke-width="1.2"/>
  <circle cx="78" cy="603" r="8" fill="#34D399"/>
  <path d="M 75,603 L 77,605 L 81,601" fill="none" stroke="#FFFFFF" stroke-width="1.5" stroke-linecap="round"/>
  <text x="96" y="607" font-size="12" font-weight="700" fill="#065F46">Single copy of data</text>


  <!-- Column 2 Details -->
  <rect x="425" y="395" width="350" height="240" rx="8" fill="#FDFDFD" stroke="#E4E4E7" stroke-width="1.5"/>
  <circle cx="450" cy="420" r="10" fill="#10B981"/>
  <text x="450" y="424" text-anchor="middle" font-size="11" font-weight="700" fill="#FFFFFF">2</text>
  <text x="468" y="424" font-size="13" font-weight="700" fill="#047857">2. Serving: Direct Lake semantic model</text>

  <g transform="translate(400, 45)">
    <rect x="42" y="420" width="8" height="20" rx="1" fill="#34D399"/>
    <rect x="54" y="420" width="8" height="20" rx="1" fill="#059669"/>
    <rect x="66" y="420" width="8" height="20" rx="1" fill="#10B981"/>
    <path d="M 58,455 L 58,444 M 55,447 L 58,444 L 61,447" fill="none" stroke="#047857" stroke-width="1.5" stroke-linecap="round" stroke-linejoin="round"/>
    <path d="M 36,460 L 80,460" stroke="#047857" stroke-width="1.5"/>
  </g>

  <circle cx="497" cy="457" r="2.5" fill="#4B5563"/>
  <text x="507" y="460" font-size="10.5" fill="#374151">Direct Lake loads Parquet column data</text>
  <text x="507" y="473" font-size="10.5" fill="#374151">directly from OneLake into memory <tspan fill="#047857" font-weight="600">[S3]</tspan>.</text>

  <circle cx="497" cy="497" r="2.5" fill="#4B5563"/>
  <g data-node-id="directquery-fallback" role="group" tabindex="0" aria-label="DirectQuery fallback">
    <title data-node-tooltip="true">DirectQuery fallback — Query reads the SQL analytics endpoint live, escaping the framing snapshot at the cost of speed.</title>
    <rect x="495.0" y="484.8" width="243.2" height="30.0" rx="6" fill="transparent" pointer-events="all"/>
    <text x="507" y="500" font-size="10.5" fill="#374151">It delivers import-model query speed</text>
  </g>
  <text x="507" y="513" font-size="10.5" fill="#374151">without scheduled import refresh <tspan fill="#047857" font-weight="600">[S3]</tspan>.</text>

  <circle cx="497" cy="537" r="2.5" fill="#4B5563"/>
  <text x="507" y="540" font-size="10.5" fill="#374151">Freshness follows lakehouse writes,</text>
  <text x="507" y="553" font-size="10.5" fill="#374151">reducing refresh-orchestration failures.</text>

  <rect x="440" y="585" width="150" height="36" rx="18" fill="#ECFDF5" stroke="#10B981" stroke-width="1.2"/>
  <path d="M 454,596 L 462,596 L 466,600 L 466,610 L 454,610 Z" fill="none" stroke="#047857" stroke-width="1"/>
  <line x1="452" y1="598" x2="470" y2="608" stroke="#DC2626" stroke-width="1.5"/>
  <text x="474" y="607" font-size="11" font-weight="700" fill="#065F46">No import copy</text>

  <rect x="600" y="585" width="160" height="36" rx="18" fill="#ECFDF5" stroke="#10B981" stroke-width="1.2"/>
  <rect x="612" y="596" width="12" height="12" rx="1" fill="none" stroke="#047857" stroke-width="1"/>
  <line x1="612" y1="600" x2="624" y2="600" stroke="#047857" stroke-width="1"/>
  <text x="630" y="607" font-size="11" font-weight="700" fill="#065F46">No scheduled refresh</text>


  <!-- Column 3 Details -->
  <rect x="810" y="395" width="350" height="240" rx="8" fill="#FDFDFD" stroke="#E4E4E7" stroke-width="1.5"/>
  <circle cx="835" cy="420" r="10" fill="#3B82F6"/>
  <text x="835" y="424" text-anchor="middle" font-size="11" font-weight="700" fill="#FFFFFF">3</text>
  <text x="853" y="424" font-size="13" font-weight="700" fill="#1D4ED8">3. Capacity sizing</text>

  <g transform="translate(790, 45)">
    <circle cx="45" cy="425" r="16" fill="none" stroke="#3B82F6" stroke-width="2"/>
    <path d="M 33,425 A 12,12 0 0,1 57,425" fill="none" stroke="#2563EB" stroke-width="1.5"/>
    <line x1="45" y1="425" x2="52" y2="415" stroke="#2563EB" stroke-width="2.5" stroke-linecap="round"/>
    <circle cx="45" cy="425" r="2.5" fill="#1D4ED8"/>
  </g>

  <circle cx="882" cy="457" r="2.5" fill="#4B5563"/>
  <text x="892" y="460" font-size="10.5" fill="#374151">Capacity SKU determines memory limits</text>
  <text x="892" y="473" font-size="10.5" fill="#374151">for Direct Lake resident columns <tspan fill="#2563EB" font-weight="600">[S4]</tspan>.</text>

  <circle cx="882" cy="497" r="2.5" fill="#4B5563"/>
  <text x="892" y="500" font-size="10.5" fill="#374151">Larger SKUs keep more data warm and</text>
  <text x="892" y="513" font-size="10.5" fill="#374151">reduce cold-read fallbacks <tspan fill="#2563EB" font-weight="600">[S4]</tspan>.</text>

  <circle cx="882" cy="537" r="2.5" fill="#4B5563"/>
  <text x="892" y="540" font-size="10.5" fill="#374151">Under-sizing is mainly a memory-sizing</text>
  <text x="892" y="553" font-size="10.5" fill="#374151">problem, not just a compute problem.</text>

  <!-- Slider inside Column 3 -->
  <rect x="825" y="573" width="320" height="52" rx="6" fill="#F8FAFC" stroke="#E2E8F0" stroke-width="1"/>
  <text x="835" y="587" font-size="10" font-weight="700" fill="#3B2A5A">More resident memory = fewer cold reads</text>
  <rect x="835" y="594" width="300" height="6" rx="3" fill="url(#sliderGrad)"/>
  <text x="835" y="614" font-size="8" fill="#64748B">Less memory</text>
  <text x="1135" y="614" text-anchor="end" font-size="8" fill="#64748B">More memory / Fewer cold reads</text>
  <polygon points="1070,594 1066,587 1074,587" fill="#1E293B"/>


  <!-- SUB-DETAILS ROW -->

  <!-- Exceeded Warning Box under Column 2 -->
  <rect x="425" y="655" width="350" height="85" rx="8" fill="#FFFBEB" stroke="#F59E0B" stroke-width="1.5"/>
  <path d="M 445,698 L 455,678 L 465,698 Z" fill="#D97706" stroke="#D97706" stroke-width="1.5" stroke-linejoin="round"/>
  <line x1="455" y1="685" x2="455" y2="691" stroke="#FFFFFF" stroke-width="2" stroke-linecap="round"/>
  <circle cx="455" cy="695" r="1" fill="#FFFFFF"/>
  <text x="475" y="678" font-size="11.5" font-weight="700" fill="#92400E">When memory is exceeded</text>
  <text x="475" y="693" font-size="10.2" fill="#78350F">Queries can fall back to reading needed columns</text>
  <text x="475" y="705" font-size="10.2" fill="#78350F">from OneLake on demand. This hurts performance</text>
  <text x="475" y="717" font-size="10.2" fill="#78350F">but does not require an import refresh.</text>


  <!-- BOTTOM ROW: WHAT TO WATCH -->
  <rect x="40" y="760" width="1120" height="85" rx="8" fill="#F8FAFC" stroke="#E2E8F0" stroke-width="1.5"/>
  <path d="M 60,802 Q 75,787 90,802 Q 75,817 60,802 Z" fill="none" stroke="#1E293B" stroke-width="2"/>
  <circle cx="75" cy="802" r="4.5" fill="none" stroke="#1E293B" stroke-width="1.5"/>
  <circle cx="75" cy="802" r="1.5" fill="#1E293B"/>
  <text x="105" y="806" font-size="13" font-weight="700" fill="#1E293B">What to watch</text>

  <line x1="210" y1="770" x2="210" y2="835" stroke="#E2E8F0" stroke-width="1.5"/>

  <!-- Warning Card 1 -->
  <path d="M 230,812 L 240,792 L 250,812 Z" fill="#F59E0B" stroke="#F59E0B" stroke-width="1" stroke-linejoin="round"/>
  <line x1="240" y1="798" x2="240" y2="805" stroke="#FFFFFF" stroke-width="1.8" stroke-linecap="round"/>
  <circle cx="240" cy="809" r="0.8" fill="#FFFFFF"/>
  <g data-node-id="residency-check" role="group" tabindex="0" aria-label="Column residency check">
    <title data-node-tooltip="true">Column residency check — The engine checks whether requested columns are already resident in an in-memory cache.</title>
    <rect x="248.0" y="781.3" width="480.0" height="30.0" rx="6" fill="transparent" pointer-events="all"/>
    <text x="260" y="798" font-size="11.5" font-weight="600" fill="#1E293B">Keep the model's resident column footprint under the SKU memory bound;</text>
  </g>
  <g data-node-id="lazy-load-onelake" role="group" tabindex="0" aria-label="Lazy load from OneLake">
    <title data-node-tooltip="true">Lazy load from OneLake — Non-resident columns load directly from the OneLake Delta table, anchored to the last framing point.</title>
    <rect x="248.0" y="797.0" width="394.0" height="30.0" rx="6" fill="transparent" pointer-events="all"/>
    <text x="260" y="813" font-size="11" fill="#475569">otherwise queries may read columns from OneLake on demand.</text>
  </g>

  <!-- Warning Card 2 -->
  <path d="M 700,812 L 710,792 L 720,812 Z" fill="#F59E0B" stroke="#F59E0B" stroke-width="1" stroke-linejoin="round"/>
  <line x1="710" y1="798" x2="710" y2="805" stroke="#FFFFFF" stroke-width="1.8" stroke-linecap="round"/>
  <circle cx="710" cy="809" r="0.8" fill="#FFFFFF"/>
  <g data-node-id="sql-view-fallback-warning" role="group" tabindex="0" aria-label="Trap: SQL views force permanent fallback">
    <title data-node-tooltip="true">Trap: SQL views force permanent fallback — Basing a Direct Lake on SQL table on a view sends every query into DirectQuery fallback, invisibly.</title>
    <rect x="718.0" y="781.3" width="370.8" height="30.0" rx="6" fill="transparent" pointer-events="all"/>
    <text x="730" y="798" font-size="11.5" font-weight="600" fill="#1E293B">Lakehouse tables must stay in Direct Lake compatible</text>
  </g>
  <text x="730" y="813" font-size="11" fill="#475569">Delta / Parquet form.</text>


  <!-- FOOTER -->
  <text x="1160" y="875" text-anchor="end" font-size="10" fill="#94A3B8">Fabric Atlas — original diagram. Grounded in Fabric Learn specifications. Replaced PNG with vector SVG.</text>
</svg>
